HIERARCHY
ROOT Hips
{
	OFFSET	0.00	0.00	0.00
	CHANNELS 6 Xposition Yposition Zposition Zrotation Xrotation Yrotation
	JOINT Spine
	{
		OFFSET	 0.00	0.01	 0.00
		CHANNELS 3 Zrotation Xrotation Yrotation
		JOINT Spine1
		{
			OFFSET	 0.00	 2.45913012437421	 0.00
			CHANNELS 3 Zrotation Xrotation Yrotation
            JOINT Neck
            {
                OFFSET	 0.00	 2.48462964506057	 0.00
                CHANNELS 3 Zrotation Xrotation Yrotation
                JOINT Head
                {
                    OFFSET	 0.00	 0.927524780924562	 0.00
                    CHANNELS 3 Zrotation Xrotation Yrotation
                    End Site 
                    {
                        OFFSET	 0.00	 1.14999962169752	 0.00
                    }
                }
            }
			JOINT LeftShoulder
			{
				OFFSET	 0.00	 2.48462964506057	 0.00
				CHANNELS 3 Zrotation Xrotation Yrotation
				JOINT LeftUpArm
				{
					OFFSET	 0.00	 1.24881979654096	 0.00
					CHANNELS 3 Zrotation Xrotation Yrotation
					JOINT LeftForeArm
					{
						OFFSET	 0.00	2.59758046908119	 0.00
						CHANNELS 3 Zrotation Xrotation Yrotation
						JOINT LeftHand
						{
							OFFSET	 0.00	2.45542024364365	 0.00
							CHANNELS 3 Zrotation Xrotation Yrotation
							JOINT LeftHandThumb 
							{
								OFFSET	 0.00	0.00	 0.00
								CHANNELS 3 Zrotation Xrotation Yrotation
								End Site
								{
									OFFSET	 0.00	0.00	1.00000003353624
								}
							}
							JOINT L_Wrist_End 
							{
								OFFSET	 0.00	0.99999967115358	 0.00
								CHANNELS 3 Zrotation Xrotation Yrotation
								End Site 
								{
									OFFSET	 0.00	 0.00	 0.00
								}
							}
						}
					}
				}
			}
			JOINT RightShoulder
			{
				OFFSET	 0.00	 2.48462964506057	 0.00
				CHANNELS 3 Zrotation Xrotation Yrotation
				JOINT RightUpArm
				{
					OFFSET	 0.00	 1.24881979654096	 0.00
					CHANNELS 3 Zrotation Xrotation Yrotation
					JOINT RightForeArm
					{
						OFFSET	 0.00	2.59758046908119	 0.00
						CHANNELS 3 Zrotation Xrotation Yrotation
						JOINT RightHand
						{
							OFFSET	 0.00	2.45542024364365	 0.00
							CHANNELS 3 Zrotation Xrotation Yrotation
							JOINT RightHandThumb 
							{
								OFFSET	 0.00	0.00	 0.00
								CHANNELS 3 Zrotation Xrotation Yrotation
								End Site
								{
									OFFSET	 0.00	0.00	1.00000003353624
								}
							}
							JOINT R_Wrist_End 
							{
								OFFSET	 0.00	0.99999967115358	 0.00
								CHANNELS 3 Zrotation Xrotation Yrotation
								End Site 
								{
									OFFSET	 0.00	 0.00	 0.00
								}
							}
						}
					}
				}
			}
		}
	}
	JOINT LeftUpLeg
	{
		OFFSET	 1.2719394002717	 0.00	 0.00
		CHANNELS 3 Zrotation Xrotation Yrotation
		JOINT LeftLowLeg
		{
			OFFSET	 0.00	-4.3429100912261	 0.00
			CHANNELS 3 Zrotation Xrotation Yrotation
			JOINT LeftFoot
			{
				OFFSET	 0.00	-4.48767017425826	 0.00
				CHANNELS 3 Zrotation Xrotation Yrotation
				JOINT LeftToeBase
                {
                    OFFSET	 0.00	0.00	 1.51507020887566
                    CHANNELS 3 Zrotation Xrotation Yrotation
                    End Site 
                    {
                        OFFSET	 0.00	0.00	 0.75000010571191
                    }
                }
			}
		}
	}
	JOINT RightUpLeg
	{
		OFFSET	 -1.2719393604653	 0.00	 0.00
		CHANNELS 3 Zrotation Xrotation Yrotation
		JOINT RightLowLeg
		{
			OFFSET	 0.00	-4.3429100912261	 0.00
			CHANNELS 3 Zrotation Xrotation Yrotation
			JOINT RightFoot
			{
				OFFSET	 0.00	-4.48767017425826	 0.00
				CHANNELS 3 Zrotation Xrotation Yrotation
				JOINT RightToeBase
                {
                    OFFSET	 0.00	0.00	 1.51507020887566
                    CHANNELS 3 Zrotation Xrotation Yrotation
                    End Site 
                    {
                        OFFSET	 0.00	0.00	 0.749999965609858
                    }
                }   
			}
		}
	}
}
MOTION 
Frames:	15 
Frame Time: 0.02 
 -5.712969970703125 0.37967601776123044 9.176400146484376 55.415 87.1923 -59.6781 2.36461 -19.0973 0.0791484 -7.47013 21.3511 4.48134 51.404 48.9137 -38.6544 -57.1036 -69.1964 -56.4281 -114.9185 -1.43586 8.25685 -47.4373 8.68299 18.9512 0.0 19.2647 0.0 7.57227 -17.3006 -10.5057 0.0 0.0 0.0 0.0 0.0 0.0 119.8156 -5.64466 -1.5948 49.0635 2.00119 -15.5049 0.0 25.5733 0.0 2.42751 -9.46706 19.6067 0.0 0.0 0.0 0.0 0.0 0.0 -3.79329 5.95298 -11.3927 0.0 14.7837 0.0 -7.57072 -7.676399 13.8616 0.0 -21.94579 0.0 3.8663 3.48558 22.2929 0.0 20.7774 0.0 24.4386 -13.8284 -7.22845 0.0 -18.69383 0.0 
  -5.709650268554688 0.3763479995727539 9.177750244140626 57.6053 87.2694 -61.7073 2.35926 -19.1683 0.0025484 -7.45136 21.3352 4.3985 51.2731 48.8892 -38.4212 -57.2206 -69.3955 -56.8333 -114.9488 -1.47885 8.26795 -47.3034 8.82296 19.4118 0.0 19.3647 0.0 8.1424 -17.1238 -9.75631 0.0 0.0 0.0 0.0 0.0 0.0 119.849304 -5.67684 -1.4318 48.9976 1.9087 -15.6977 0.0 25.6507 0.0 2.29294 -9.48146 19.1718 0.0 0.0 0.0 0.0 0.0 0.0 -3.78693 5.81929 -11.6612 0.0 14.816 0.0 -7.60333 -7.6453 13.9044 0.0 -22.0234 0.0 3.82411 3.43911 22.0711 0.0 20.6579 0.0 24.409 -13.740101 -7.18737 0.0 -18.67293 0.0 
  -5.7073602294921875 0.3747470092773437 9.1768701171875 57.1793 87.242 -61.2845 2.3646 -19.0297 0.0200483 -7.43095 21.1876 4.37726 51.3907 48.5747 -38.7532 -56.9267 -69.3871 -56.4327 -114.9059 -1.36075 8.16667 -47.2724 8.69009 19.9217 0.0 19.4475 0.0 8.53505 -16.8782 -9.42705 0.0 0.0 0.0 0.0 0.0 0.0 119.8008 -5.45701 -1.26832 48.9827 1.48225 -15.7606 0.0 25.8144 0.0 2.36005 -9.57725 18.9627 0.0 0.0 0.0 0.0 0.0 0.0 -3.80686 5.89005 -11.5907 0.0 14.7451 0.0 -7.56794 -7.6413 13.8753 0.0 -22.00174 0.0 3.81201 3.52113 22.2041 0.0 20.5888 0.0 24.2784 -13.847 -7.39068 0.0 -18.57353 0.0 
  -5.7039599609375 0.37368099212646483 9.177459716796875 57.4411 87.2618 -61.4645 2.44065 -18.8735 0.0670574 -7.50772 20.9913 4.27015 51.4967 48.4903 -38.8538 -57.0173 -69.501 -56.4918 -114.8611 -1.26365 8.15902 -47.1571 8.59198 20.403 0.0 19.582 0.0 8.67524 -16.664 -8.94028 0.0 0.0 0.0 0.0 0.0 0.0 119.8189 -5.68165 -1.39225 48.9751 1.79314 -16.0519 0.0 25.5946 0.0 2.39987 -9.3909 18.9116 0.0 0.0 0.0 0.0 0.0 0.0 -3.80044 5.89611 -11.6014 0.0 14.6744 0.0 -7.53905 -7.6171 13.8427 0.0 -21.9511 0.0 3.78128 3.54096 21.9623 0.0 20.5018 0.0 24.5495 -13.7868 -7.15397 0.0 -18.64976 0.0 
  -5.702269897460938 0.37201499938964844 9.178289794921875 60.6619 87.326 -64.5914 2.38316 -19.0165 -0.017408 -7.43953 21.0354 4.2682 51.2287 48.3444 -38.6369 -56.5737 -69.5136 -56.2424 -114.878296 -1.17305 8.19961 -47.0321 8.63114 20.8938 0.0 19.7299 0.0 8.756 -16.5003 -8.28391 0.0 0.0 0.0 0.0 0.0 0.0 119.7679 -5.57814 -1.54332 48.962 1.84248 -15.9824 0.0 25.5869 0.0 2.42507 -9.37948 18.9767 0.0 0.0 0.0 0.0 0.0 0.0 -3.80712 5.74776 -11.6932 0.0 14.6422 0.0 -7.5398 -7.577999 13.8342 0.0 -21.92691 0.0 3.7808 3.40257 22.0299 0.0 20.5035 0.0 24.5257 -13.8123 -7.28282 0.0 -18.68649 0.0 
  -5.698330078125 0.37354698181152346 9.177739868164062 60.8929 87.3049 -64.8064 2.38981 -18.8635 -0.0192249 -7.42597 21.0059 4.24815 50.9161 48.3209 -38.253 -56.683 -69.6464 -56.327 -114.8654 -1.21944 8.27416 -46.9519 8.87036 21.3955 0.0 19.7537 0.0 8.66738 -16.1789 -8.58734 0.0 0.0 0.0 0.0 0.0 0.0 119.7297 -5.50077 -1.59699 49.0187 1.7422 -15.6643 0.0 25.6438 0.0 2.32499 -9.17262 18.2822 0.0 0.0 0.0 0.0 0.0 0.0 -3.85139 5.7323 -11.7226 0.0 14.6528 0.0 -7.42376 -7.5636005 13.9048 0.0 -21.892231 0.0 3.73659 3.47314 22.1657 0.0 20.3676 0.0 24.5802 -13.9209 -7.39556 0.0 -18.58537 0.0 
  -5.693989868164063 0.37514701843261716 9.1789697265625 61.7999 87.341 -65.72 2.47505 -18.7576 0.0786268 -7.45701 20.8552 4.23098 51.098 48.1543 -38.5277 -56.7796 -69.7251 -56.4688 -114.9083 -1.04745 8.18153 -46.7716 8.67652 22.0057 0.0 19.885 0.0 8.50293 -16.0852 -7.9081 0.0 0.0 0.0 0.0 0.0 0.0 119.7609 -5.54784 -1.31533 48.9695 1.59769 -16.005 0.0 25.4777 0.0 2.44547 -9.28444 18.3759 0.0 0.0 0.0 0.0 0.0 0.0 -3.87441 5.65733 -11.7982 0.0 14.6761 0.0 -7.28222 -7.5158005 14.0129 0.0 -21.91763 0.0 3.71481 3.37401 21.9954 0.0 20.3992 0.0 24.5353 -13.862301 -7.3242 0.0 -18.51689 0.0 
  -5.692340087890625 0.37722999572753907 9.178489990234375 63.5771 87.3571 -67.4135 2.39112 -18.6974 -0.0282301 -7.36137 20.8023 4.20002 50.9168 47.9672 -38.4528 -56.6829 -69.7453 -56.0902 -114.9508 -1.06701 8.3379 -46.6985 8.87802 22.2297 0.0 19.907 0.0 8.57369 -15.9779 -7.56048 0.0 0.0 0.0 0.0 0.0 0.0 119.742905 -5.70592 -1.57093 48.9356 1.9609 -15.9945 0.0 25.457 0.0 2.41849 -9.30118 18.4394 0.0 0.0 0.0 0.0 0.0 0.0 -3.9051 5.54329 -11.8171 0.0 14.6806 0.0 -7.40528 -7.563999 13.9624 0.0 -21.85589 0.0 3.73085 3.30484 22.3015 0.0 20.4234 0.0 24.3851 -14.003 -7.65285 0.0 -18.43931 0.0 
  -5.687960205078125 0.3799359893798828 9.178270263671875 65.5378 87.3865 -69.3415 2.44742 -18.6319 0.0204657 -7.40955 20.7878 4.18006 50.5319 47.8374 -38.0329 -56.4019 -69.8785 -55.9683 -114.9316 -1.00605 8.32709 -46.5772 8.91257 22.8901 0.0 20.07 0.0 8.64209 -16.0126 -7.54085 0.0 0.0 0.0 0.0 0.0 0.0 119.7146 -5.47349 -1.38634 48.9646 1.63742 -16.0345 0.0 25.5036 0.0 2.41804 -9.4243 18.6128 0.0 0.0 0.0 0.0 0.0 0.0 -3.93088 5.40722 -11.9014 0.0 14.7379 0.0 -7.43514 -7.559601 13.944 0.0 -21.92818 0.0 3.66807 3.1943 22.057 0.0 20.3959 0.0 24.6779 -13.929199 -7.30811 0.0 -18.5849 0.0 
  -5.68655029296875 0.38236198425292967 9.178560180664062 67.7306 87.401 -71.4973 2.49768 -18.5973 0.0963922 -7.45493 20.787 4.2059 50.1342 47.741 -37.6087 -56.4291 -70.018 -56.1058 -114.871796 -0.846902 8.38916 -46.5677 8.96585 23.0741 0.0 20.0418 0.0 8.66052 -15.877 -7.40145 0.0 0.0 0.0 0.0 0.0 0.0 119.7103 -5.37546 -1.28904 48.9825 1.40194 -15.9521 0.0 25.5948 0.0 2.51704 -9.32598 18.6498 0.0 0.0 0.0 0.0 0.0 0.0 -3.95616 5.26766 -11.964 0.0 14.7868 0.0 -7.44463 -7.5270996 13.9573 0.0 -21.98332 0.0 3.6228 3.07272 21.8489 0.0 20.4025 0.0 24.7846 -13.9058 -7.14878 0.0 -18.51819 0.0 
  -5.68125 0.3869380187988281 9.179710083007812 67.8674 87.5061 -71.7036 2.60533 -18.4815 0.0950762 -7.3738 20.8566 4.14658 49.4368 47.7278 -36.8242 -56.3726 -70.1101 -55.9495 -115.0078 -0.958634 8.34573 -46.4548 9.08699 23.2829 0.0 20.1225 0.0 8.70187 -15.8345 -7.26502 0.0 0.0 0.0 0.0 0.0 0.0 119.7743 -5.38696 -1.42922 48.8392 1.64045 -16.0057 0.0 25.6126 0.0 2.33196 -9.45216 18.2658 0.0 0.0 0.0 0.0 0.0 0.0 -3.90323 5.22852 -11.9841 0.0 14.7433 0.0 -7.4114 -7.5853996 14.0482 0.0 -21.85841 0.0 3.66636 2.9446 21.7386 0.0 20.4447 0.0 24.4304 -13.716101 -7.18206 0.0 -18.58173 0.0 
  -5.677899780273438 0.3896849822998047 9.179949951171874 69.0136 87.4825 -72.9119 2.60959 -18.4006 0.137337 -7.36599 20.8281 4.18577 48.8352 47.6047 -36.2546 -56.4753 -70.2048 -56.2479 -114.968 -0.801865 8.23988 -46.4953 8.86043 23.4873 0.0 20.2322 0.0 8.88953 -15.811 -7.29222 0.0 0.0 0.0 0.0 0.0 0.0 119.7343 -5.2144 -1.27152 48.8258 1.32292 -16.0361 0.0 25.7474 0.0 2.33883 -9.29773 18.4136 0.0 0.0 0.0 0.0 0.0 0.0 -3.94315 5.16232 -11.7756 0.0 14.7604 0.0 -7.32961 -7.5193996 13.934 0.0 -21.84773 0.0 3.63515 2.86354 21.8982 0.0 20.5097 0.0 24.7307 -13.794901 -7.14678 0.0 -18.611229 0.0 
  -5.6749200439453125 0.3927939987182617 9.180170288085938 70.5106 87.4646 -74.4118 2.65388 -18.3005 0.193507 -7.39273 20.8324 4.1977 48.2066 47.4499 -35.583 -56.6249 -70.4015 -56.1085 -114.9581 -0.798396 8.31982 -46.4772 8.97719 23.6276 0.0 20.2589 0.0 9.00452 -15.8521 -7.46386 0.0 0.0 0.0 0.0 0.0 0.0 119.7578 -5.34002 -1.44259 48.7414 1.57946 -16.159 0.0 25.8234 0.0 2.37599 -9.38487 18.4568 0.0 0.0 0.0 0.0 0.0 0.0 -3.98974 5.10811 -11.8664 0.0 14.709 0.0 -7.33044 -7.4545 13.9415 0.0 -21.91486 0.0 3.57071 2.83128 22.04 0.0 20.4307 0.0 24.7085 -13.824301 -7.17429 0.0 -18.59501 0.0 
  -5.673690185546875 0.39527900695800783 9.1814599609375 74.0179 87.4877 -77.8517 2.6268 -18.3289 0.130309 -7.33153 20.9001 4.1888 46.9236 47.5055 -34.0758 -56.6357 -70.5579 -56.0474 -115.048004 -0.782453 8.20948 -46.408 8.88429 23.5951 0.0 20.3194 0.0 8.89216 -15.752 -8.02525 0.0 0.0 0.0 0.0 0.0 0.0 119.7237 -5.31881 -1.54664 48.7621 1.62906 -16.0418 0.0 25.8449 0.0 2.18433 -9.07382 18.3615 0.0 0.0 0.0 0.0 0.0 0.0 -3.97948 4.97187 -11.8361 0.0 14.6122 0.0 -7.34914 -7.3880005 13.88 0.0 -21.86278 0.0 3.5551 2.67236 21.8919 0.0 20.4143 0.0 24.8925 -13.854099 -7.10802 0.0 -18.44734 0.0 
  -5.67135986328125 0.39880001068115234 9.18208984375 76.2599 87.4567 -80.066 2.62564 -18.2585 0.130729 -7.33523 20.9425 4.19483 45.5956 47.3307 -32.5782 -56.6146 -70.8364 -55.9192 -115.046 -0.868984 8.36222 -46.3941 9.09175 23.5315 0.0 20.4132 0.0 9.04357 -15.8824 -7.57128 0.0 0.0 0.0 0.0 0.0 0.0 119.7256 -5.32256 -1.31447 48.6971 1.51877 -16.3108 0.0 25.8826 0.0 2.25381 -9.04596 18.5459 0.0 0.0 0.0 0.0 0.0 0.0 -4.00737 4.87472 -11.636 0.0 14.5435 0.0 -7.67907 -7.3078003 13.503 0.0 -22.05137 0.0 3.48382 2.56069 21.885 0.0 20.4199 0.0 24.6359 -13.8463 -7.21446 0.0 -18.39137 0.0 
